<svg xmlns="http://www.w3.org/2000/svg" xmlns:xlink="http://www.w3.org/1999/xlink" width="52" height="17" version="1.1" viewBox="0 0 52 17"><title>Convertable@1.5x</title><desc>Created with Sketch.</desc><g id="01-Design:-Flow-and-UI" fill="none" fill-rule="evenodd" stroke="none" stroke-width="1"><g id="01.02-(Low-Severity-DTC,-Low-Battery)-Copy-3" transform="translate(-91.000000, -867.000000)"><g id="Convertable" transform="translate(91.000000, 867.500000)"><g id="Layer_1"><g id="Group"><polygon id="Shape" fill="#58595B" points="28.649 4.2 24.823 .2 25.313 .2 29.728 4.2"/><polygon id="Shape" fill="#D1D1D1" points="25.411 .2 30.317 4.1 29.042 4.2"/><path id="Shape" fill="#58595B" d="M18.7396226,4 L18.6415094,3.9 L18.9358491,2.2 C18.9358491,2.2 19.8188679,1 21.5849057,3.9 L18.7396226,4 Z"/><path id="Shape" fill="#58595B" d="M26.6867925,4.6 C26.6867925,4.7 26.8830189,4.8 26.9811321,4.7 L27.0792453,4.7 C27.1773585,4.6 27.1773585,4.5 27.1773585,4.4 L26.6867925,3 C26.6867925,2.9 26.490566,2.8 26.3924528,2.9 L26.2943396,2.9 C26.1962264,3 26.1962264,3.1 26.1962264,3.2 L26.6867925,4.6 Z"/><path id="Shape" fill="#E5E5E5" d="M51.4113208,6.8 C51.4113208,6.8 47.5849057,3.4 39.3433962,3.4 L17.954717,3.8 L15.0113208,2 C15.0113208,2 5.78867925,2 1.2754717,6.9 C1.2754717,6.9 -0.0981132075,8.8 2.35471698,10.4 C2.35471698,10.4 9.22264151,13 15.0113208,13 L15.4037736,12.3 L37.7735849,12.3 L37.9698113,13 L46.309434,11.3 C46.4075472,11.2 54.0603774,11.8 51.4113208,6.8 Z"/><g id="Shape" fill="#B7B7B7" opacity=".3"><path d="M50.7245283,0.2 C51.3132075,1.6 50.8226415,2.5 50.2339623,3.1 L1.37358491,3.1 C-0.588679245,1.7 0.196226415,0.2 0.196226415,0.2 C0.196226415,0.2 0.294339623,1.72084569e-15 0.686792453,0.1 L50.7245283,0.2 L50.7245283,0.2 Z" transform="translate(0.981132, 7.000000)"/></g><path id="Shape" fill="#494949" d="M47.290566,11.2 L48.0754717,11.2 L48.0754717,11.2 C49.154717,11.1 50.6264151,10.9 51.3132075,10.2 L48.0754717,10.2 C48.0754717,9 47.0943396,8 45.7207547,8 L42.7773585,8 C41.2075472,8 39.4415094,9 39.3433962,10.2 L15.5018868,10.2 C15.4037736,9 14.4226415,8 13.1471698,8 L10.1056604,8 C8.53584906,8 6.86792453,9 6.67169811,10.2 L2.15849057,10.2 C2.25660377,10.3 2.35471698,10.3 2.45283019,10.4 C2.45283019,10.4 9.1245283,12.9 14.9132075,12.9 L15.5018868,12.3 L37.8716981,12.3 L38.0679245,13 L41.109434,12.4 L47.0943396,11.3 C47.1924528,11.2 47.290566,11.2 47.290566,11.2 Z"/><path id="Shape" fill="#B7B7B7" d="M2.94339623,7.7 L0.981132075,8.2 C0.883018868,7.7 0.981132075,7.3 1.07924528,7.2 L2.94339623,7.2 L2.94339623,7.7 Z"/><path id="Shape" fill="#B7B7B7" d="M50.4301887,6.5 C50.2339623,6.9 49.4490566,6.8 48.6641509,6.3 C47.8792453,5.8 47.3886792,5.1 47.4867925,4.7 C48.7622642,5.2 49.7433962,5.8 50.4301887,6.2 L50.4301887,6.5 Z"/><g id="Shape" fill="#FFF" opacity=".7"><path d="M11.9698113,1.3 C11.9698113,1.3 8.83018868,0.2 4.90566038,0.2 L0.588679245,0.3 C0.686792453,0.3 7.35849057,0.4 11.9698113,1.3 Z" transform="translate(35.320755, 4.000000)"/></g><g id="Shape"><path fill="#545454" d="M0.39245283,4 C0.39245283,6.2 2.15849057,8 4.31698113,8 C6.4754717,8 8.24150943,6.2 8.24150943,4 C8.24150943,1.8 6.4754717,0 4.31698113,0 C2.15849057,0 0.39245283,1.8 0.39245283,4" transform="translate(39.245283, 8.000000)"/><path fill="#E5E5E5" d="M1.37358491,4 C1.37358491,5.7 2.6490566,7 4.31698113,7 C5.98490566,7 7.26037736,5.7 7.26037736,4 C7.26037736,2.3 5.98490566,1 4.31698113,1 C2.74716981,1 1.37358491,2.4 1.37358491,4" transform="translate(39.245283, 8.000000)"/><path fill="#545454" d="M1.86415094,4 C1.86415094,5.4 2.94339623,6.5 4.31698113,6.5 C5.69056604,6.5 6.76981132,5.4 6.76981132,4 C6.76981132,2.6 5.69056604,1.5 4.31698113,1.5 C2.94339623,1.5 1.86415094,2.7 1.86415094,4" transform="translate(39.245283, 8.000000)"/><path fill="#E5E5E5" d="M2.84528302,4 C2.84528302,4.8 3.53207547,5.5 4.31698113,5.5 C5.10188679,5.5 5.78867925,4.8 5.78867925,4 C5.78867925,3.2 5.10188679,2.5 4.31698113,2.5 C3.53207547,2.5 2.84528302,3.2 2.84528302,4" transform="translate(39.245283, 8.000000)"/></g><g id="Shape"><path fill="#545454" d="M0.490566038,4 C0.490566038,6.2 2.25660377,8 4.41509434,8 C6.57358491,8 8.33962264,6.2 8.33962264,4 C8.33962264,1.8 6.57358491,0 4.41509434,0 C2.25660377,0 0.490566038,1.8 0.490566038,4" transform="translate(6.867925, 8.000000)"/><path fill="#E5E5E5" d="M1.47169811,4 C1.47169811,5.7 2.74716981,7 4.41509434,7 C6.08301887,7 7.35849057,5.7 7.35849057,4 C7.35849057,2.3 6.08301887,1 4.41509434,1 C2.84528302,1 1.47169811,2.4 1.47169811,4" transform="translate(6.867925, 8.000000)"/><path fill="#545454" d="M1.96226415,4 C1.96226415,5.4 3.04150943,6.5 4.41509434,6.5 C5.78867925,6.5 6.86792453,5.4 6.86792453,4 C6.86792453,2.6 5.78867925,1.5 4.41509434,1.5 C3.13962264,1.5 1.96226415,2.7 1.96226415,4" transform="translate(6.867925, 8.000000)"/><path fill="#E5E5E5" d="M2.94339623,4 C2.94339623,4.8 3.63018868,5.5 4.41509434,5.5 C5.2,5.5 5.88679245,4.8 5.88679245,4 C5.88679245,3.2 5.2,2.5 4.41509434,2.5 C3.63018868,2.5 2.94339623,3.2 2.94339623,4" transform="translate(6.867925, 8.000000)"/></g></g></g></g></g></g></svg>