<svg xmlns="http://www.w3.org/2000/svg" xmlns:xlink="http://www.w3.org/1999/xlink" width="25" height="24"><defs><path id="a" d="m18.8,4.8l-4,0l0,-2c0,-1.11 -0.89,-2 -2,-2l-4,0c-1.11,0 -2,0.89 -2,2l0,2l-4,0c-1.11,0 -1.99,0.89 -1.99,2l-0.01,11c0,1.11 0.89,2 2,2l16,0c1.11,0 2,-0.89 2,-2l0,-11c0,-1.11 -0.89,-2 -2,-2zm-6,0l-4,0l0,-2l4,0l0,2z"/></defs><g><g id="svg_1" fill="none" fill-rule="evenodd"><g id="svg_2" opacity=".6"><path id="svg_3" d="m0,0l24,0l0,24l-24,0l0,-24z"/><use id="svg_4" x="1.2" y="1.2" fill-rule="nonzero" stroke="#4A4A4A" xlink:href="#a"/></g></g></g></svg>