<svg xmlns="http://www.w3.org/2000/svg" xmlns:xlink="http://www.w3.org/1999/xlink" width="56" height="67" version="1.1" viewBox="0 0 56 67"><title>Pin-1@1.5x</title><desc>Created with Sketch.</desc><defs><path id="path-1" d="M21.1862596,53.3725193 L27,65 L32.8137404,53.3725193 C44.9311168,50.713424 54,39.9157876 54,27 C54,12.0883118 41.9116882,0 27,0 C15.4743422,0 5.63541836,7.2217669 1.76140916,17.3871201 C0.623295122,20.3735176 0,23.6139696 0,27 C0,39.9157876 9.06888321,50.713424 21.1862596,53.3725193 Z"/><filter id="filter-2" width="107.4%" height="106.2%" x="-3.7%" y="-1.5%" filterUnits="objectBoundingBox"><feOffset dx="0" dy="1" in="SourceAlpha" result="shadowOffsetOuter1"/><feGaussianBlur in="shadowOffsetOuter1" result="shadowBlurOuter1" stdDeviation=".5"/><feColorMatrix in="shadowBlurOuter1" type="matrix" values="0 0 0 0 0 0 0 0 0 0 0 0 0 0 0 0 0 0 0.15 0"/></filter></defs><g id="01-Design:-Flow-and-UI" fill="none" fill-rule="evenodd" stroke="none" stroke-width="1"><g id="01.02-(Low-Severity-DTC,-Low-Battery)-Copy-3" transform="translate(-37.000000, -47.000000)"><g id="Pin-1" transform="translate(38.000000, 47.000000)"><g id="Combined-Shape-Copy-4"><use fill="#000" fill-opacity="1" filter="url(#filter-2)" xlink:href="#path-1"/><use fill="#FFF" fill-rule="evenodd" xlink:href="#path-1"/></g><path id="Combined-Shape-Copy-3" fill="#16406F" d="M21.1862596,53.3725193 L27,65 L32.8137404,53.3725193 C44.9311168,50.713424 54,39.9157876 54,27 C54,12.0883118 41.9116882,0 27,0 C15.4743422,0 5.63541836,7.2217669 1.76140916,17.3871201 C0.623295122,20.3735176 0,23.6139696 0,27 C0,39.9157876 9.06888321,50.713424 21.1862596,53.3725193 Z"/></g></g></g></svg>